# xmcd
#
# Track frame offsets: 
#        182
#        13442
#        27957
#        42467
#        55187
#        69505
#        82127
#        95415
#        109067
#        122537
#        136432
#        150247
#        162327
#        174615
#        187942
#        200925
#        213662
#        227250
#
# Disc length: 3213 seconds
#
# Revision: 4
# Processed by: cddbd v1.5.2PL0 Copyright (c) Steve Scherf et al.
# Submitted via: ExactAudioCopyFreeDBPlugin 1.0
#
DISCID=fa0c8b12
DTITLE=John Lee Hooker - Alternative Boogie: Early Studio Recordings, 
DTITLE=1948-1952
DYEAR=1995
DGENRE=Blues
TTITLE0=Come Back Baby
TTITLE1=Forgive Me
TTITLE2=Streets Is Filled With Women
TTITLE3=Moon Is Rising
TTITLE4=Whistle Done Blown
TTITLE5=Turnin' Gray Blues
TTITLE6=She Was In Chicago
TTITLE7=Lord Taketh My Baby Away
TTITLE8=Just Like A Woman
TTITLE9=Throw This Old Dog A Bone
TTITLE10=Johnny Lee's Mood
TTITLE11=Miss Eloise, Miss Eloise
TTITLE12=Crying All Night
TTITLE13=Welfare Blues
TTITLE14=Johnny Lee's Original Boogie
TTITLE15=She Left Me By Myself
TTITLE16=Out The Door I Went
TTITLE17=My Baby She's Long And Tall
EXTD=
EXTT0=
EXTT1=
EXTT2=
EXTT3=
EXTT4=
EXTT5=
EXTT6=
EXTT7=
EXTT8=
EXTT9=
EXTT10=
EXTT11=
EXTT12=
EXTT13=
EXTT14=
EXTT15=
EXTT16=
EXTT17=
PLAYORDER=
